<?xml version="1.0" encoding="utf-8"?>
<!-- Generator: Adobe Illustrator 21.0.0, SVG Export Plug-In . SVG Version: 6.00 Build 0)  -->
<svg version="1.1" id="Layer_1" xmlns="http://www.w3.org/2000/svg" xmlns:xlink="http://www.w3.org/1999/xlink" x="0px" y="0px"
	 viewBox="0 0 559 897" style="enable-background:new 0 0 559 897;" xml:space="preserve">
<style type="text/css">
	.st0{fill:none;stroke:#000000;stroke-width:2;stroke-miterlimit:10;}
</style>
<g>
	<path class="st0" d="M12.4,210.3h101c54.6,0,94,5,118.1,15.1c24.1,10.1,43.2,26.4,57.1,49c13.9,22.6,20.9,49.6,20.9,81.1
		c0,34.9-9.1,63.9-27.4,87c-18.2,23.1-43,39.2-74.3,48.3c-18.4,5.2-51.8,7.8-100.3,7.8v211.8H12.4V210.3z M107.6,405.8h30.3
		c23.8,0,40.3-1.7,49.6-5.1c9.3-3.4,16.6-9,21.9-16.9c5.3-7.8,8-17.3,8-28.5c0-19.3-7.5-33.4-22.4-42.3c-10.9-6.6-31.1-9.9-60.5-9.9
		h-26.9V405.8z"/>
	<path class="st0" d="M415.8,210.3h95.5v331.8c0,52.8-4.2,89.9-12.6,111.2c-8.4,21.3-22.2,38.2-41.5,50.8
		C438,716.7,414.9,723,387.9,723c-55.1,0-102-24.1-140.8-72.4l68.7-64.3c15.2,17.2,28.1,28.8,38.8,34.7c10.7,5.9,21,8.8,30.9,8.8
		c10.2,0,17.8-4.3,22.8-12.9c5-8.6,7.5-27.5,7.5-56.8V210.3z"/>
</g>
<g>
	<path class="st0" d="M50.2,210.3h101c54.6,0,94,5,118.1,15.1c24.1,10.1,43.2,26.4,57.1,49c13.9,22.6,20.9,49.6,20.9,81.1
		c0,34.9-9.1,63.9-27.4,87c-18.2,23.1-43,39.2-74.3,48.3c-18.4,5.2-51.8,7.8-100.3,7.8v211.8H50.2V210.3z M145.4,405.8h30.3
		c23.8,0,40.3-1.7,49.6-5.1c9.3-3.4,16.6-9,21.9-16.9c5.3-7.8,8-17.3,8-28.5c0-19.3-7.5-33.4-22.4-42.3c-10.9-6.6-31.1-9.9-60.5-9.9
		h-26.9V405.8z"/>
	<path class="st0" d="M453.6,210.3h95.5v331.8c0,52.8-4.2,89.9-12.6,111.2c-8.4,21.3-22.2,38.2-41.5,50.8
		c-19.3,12.6-42.4,18.9-69.4,18.9c-55.1,0-102-24.1-140.8-72.4l68.7-64.3c15.2,17.2,28.1,28.8,38.8,34.7c10.7,5.9,21,8.8,30.9,8.8
		c10.2,0,17.8-4.3,22.8-12.9c5-8.6,7.5-27.5,7.5-56.8V210.3z"/>
</g>
</svg>
