<?xml version="1.0" encoding="utf-8"?>
<!-- Generator: Adobe Illustrator 21.0.0, SVG Export Plug-In . SVG Version: 6.00 Build 0)  -->
<svg version="1.1" id="Layer_1" xmlns="http://www.w3.org/2000/svg" xmlns:xlink="http://www.w3.org/1999/xlink" x="0px" y="0px"
	 viewBox="0 0 559 897" style="enable-background:new 0 0 559 897;" xml:space="preserve">
<style type="text/css">
	.st0{fill:none;stroke:#000000;stroke-width:2;stroke-miterlimit:10;}
</style>
<g>
	<path class="st0" d="M213.5,369.6c5.6-8.2,8.4-18.2,8.4-29.9c0-20.3-7.8-35-23.5-44.3c-10-6-27.4-9.4-52.3-10.2v107.4
		c20.9-0.3,35.7-2.1,44.5-5.3C200.3,383.7,208,377.8,213.5,369.6z"/>
	<rect x="7" y="187.7" class="st0" width="39.3" height="524.3"/>
	<path class="st0" d="M252.8,369.6c5.6-8.2,8.4-18.2,8.4-29.9c0-20.3-7.8-35-23.5-44.3c-11.4-6.9-32.6-10.4-63.4-10.4h-28.2v0.2
		c24.9,0.8,42.3,4.2,52.3,10.2c15.7,9.3,23.5,24.1,23.5,44.3c0,11.7-2.8,21.6-8.4,29.9c-5.6,8.2-13.2,14.1-23,17.7
		c-8.7,3.2-23.6,5-44.5,5.3v0.1h31.7c24.9,0,42.3-1.8,52-5.4C239.6,383.7,247.2,377.8,252.8,369.6z"/>
	<path class="st0" d="M446.7,614c5.2-9,7.8-28.9,7.8-59.5V187.7h-24.7v366.7c0,30.7-2.6,50.5-7.8,59.5c-3.3,5.7-7.7,9.6-13.3,11.7
		c4.8,1.2,9.5,1.8,14.1,1.8C433.5,627.5,441.4,623,446.7,614z"/>
	<path class="st0" d="M277.7,649.2l58.8-55c-3.7-3.8-7.5-7.9-11.5-12.4l-72,67.4c40.6,50.6,89.8,75.9,147.6,75.9
		c4.1,0,8.1-0.2,12-0.4C360.3,721.3,315.4,696.1,277.7,649.2z"/>
	<path class="st0" d="M329.1,431.1c19.1-24.2,28.7-54.6,28.7-91.2c0-33-7.3-61.4-21.9-85c-14.6-23.6-34.6-40.7-59.9-51.3
		c-25.3-10.6-66.6-15.9-123.9-15.9h-39.3H46.3V712h60.5h39.3v-222c50.8,0,85.9-2.7,105.1-8.2C284,472.2,310,455.4,329.1,431.1z
		 M146.1,392.6L146.1,392.6V285.2V285h28.2c30.9,0,52,3.5,63.4,10.4c15.7,9.3,23.5,24.1,23.5,44.3c0,11.7-2.8,21.6-8.4,29.9
		c-5.6,8.2-13.2,14.1-23,17.7c-9.7,3.6-27.1,5.4-52,5.4H146.1z"/>
	<path class="st0" d="M530,187.7h-75.5v366.7c0,30.7-2.6,50.5-7.8,59.5c-5.2,9-13.2,13.5-23.9,13.5c-4.6,0-9.3-0.6-14.1-1.8
		c-6-1.5-12.1-4-18.4-7.5c-11.2-6.2-24.7-18.3-40.6-36.4l-13.2,12.4l-58.8,55c37.6,46.9,82.6,72,134.9,75.5
		c4.2,0.3,8.4,0.4,12.7,0.4c28.3,0,52.5-6.6,72.7-19.8c20.2-13.2,34.7-30.9,43.5-53.3c8.8-22.3,13.2-61.2,13.2-116.5V187.7H530z"/>
</g>
</svg>
